<mxfile modified="2020-03-26T13:44:46.160Z" host="app.diagrams.net" agent="Mozilla/5.0 (Windows NT 10.0; Win64; x64) AppleWebKit/537.36 (KHTML, like Gecko) Chrome/80.0.3987.149 Safari/537.36" etag="ZcNDg6x0fK0lu4VOR3ug" version="12.9.0" type="github" pages="4">
  <diagram id="lOIXeB1SdbAjSqTrTIgE" name="Start of design- Multi Catalogue">
    <mxGraphModel dx="1609" dy="1606" grid="1" gridSize="10" guides="1" tooltips="1" connect="1" arrows="1" fold="1" page="1" pageScale="1" pageWidth="827" pageHeight="1169" math="0" shadow="0">
      <root>
        <mxCell id="Fbse_wCR-hVCXEEPw7fp-0" />
        <mxCell id="Fbse_wCR-hVCXEEPw7fp-1" parent="Fbse_wCR-hVCXEEPw7fp-0" />
        <mxCell id="JncalxTZiapO0wDldsAv-0" value="&lt;b&gt;Quoting&lt;/b&gt;" style="rounded=1;whiteSpace=wrap;html=1;verticalAlign=top;strokeWidth=1;strokeColor=#020912;dashed=1;" vertex="1" parent="Fbse_wCR-hVCXEEPw7fp-1">
          <mxGeometry x="632" y="-140" width="210" height="560" as="geometry" />
        </mxCell>
        <mxCell id="_JlLbovI6DGsuCHX4jDz-0" value="&lt;b&gt;Design&lt;/b&gt;" style="rounded=1;whiteSpace=wrap;html=1;verticalAlign=top;strokeWidth=1;strokeColor=#020912;dashed=1;" parent="Fbse_wCR-hVCXEEPw7fp-1" vertex="1">
          <mxGeometry x="-90" y="-60" width="550" height="375" as="geometry" />
        </mxCell>
        <mxCell id="_JlLbovI6DGsuCHX4jDz-23" value="&lt;b&gt;2020 Fusion&lt;/b&gt;" style="rounded=1;whiteSpace=wrap;html=1;verticalAlign=top;strokeWidth=3;strokeColor=#020912;" parent="Fbse_wCR-hVCXEEPw7fp-1" vertex="1">
          <mxGeometry x="-70" y="65" width="510" height="230" as="geometry" />
        </mxCell>
        <mxCell id="_JlLbovI6DGsuCHX4jDz-36" style="edgeStyle=orthogonalEdgeStyle;rounded=0;orthogonalLoop=1;jettySize=auto;html=1;exitX=1;exitY=0.5;exitDx=0;exitDy=0;entryX=0.5;entryY=0;entryDx=0;entryDy=0;" parent="Fbse_wCR-hVCXEEPw7fp-1" source="_JlLbovI6DGsuCHX4jDz-1" target="_JlLbovI6DGsuCHX4jDz-3" edge="1">
          <mxGeometry relative="1" as="geometry" />
        </mxCell>
        <mxCell id="_JlLbovI6DGsuCHX4jDz-1" value="Dewsbury Catalogue" style="rounded=1;whiteSpace=wrap;html=1;" parent="Fbse_wCR-hVCXEEPw7fp-1" vertex="1">
          <mxGeometry x="30" y="100" width="120" height="60" as="geometry" />
        </mxCell>
        <mxCell id="_JlLbovI6DGsuCHX4jDz-37" style="edgeStyle=orthogonalEdgeStyle;rounded=0;orthogonalLoop=1;jettySize=auto;html=1;exitX=1;exitY=0.5;exitDx=0;exitDy=0;entryX=0.5;entryY=1;entryDx=0;entryDy=0;" parent="Fbse_wCR-hVCXEEPw7fp-1" source="_JlLbovI6DGsuCHX4jDz-2" target="_JlLbovI6DGsuCHX4jDz-3" edge="1">
          <mxGeometry relative="1" as="geometry" />
        </mxCell>
        <mxCell id="_JlLbovI6DGsuCHX4jDz-2" value="Darlington Catalogue" style="rounded=1;whiteSpace=wrap;html=1;" parent="Fbse_wCR-hVCXEEPw7fp-1" vertex="1">
          <mxGeometry x="30" y="210" width="120" height="60" as="geometry" />
        </mxCell>
        <mxCell id="_JlLbovI6DGsuCHX4jDz-38" style="edgeStyle=orthogonalEdgeStyle;rounded=0;orthogonalLoop=1;jettySize=auto;html=1;exitX=1;exitY=0.5;exitDx=0;exitDy=0;entryX=0;entryY=0.5;entryDx=0;entryDy=0;" parent="Fbse_wCR-hVCXEEPw7fp-1" source="_JlLbovI6DGsuCHX4jDz-3" target="_JlLbovI6DGsuCHX4jDz-4" edge="1">
          <mxGeometry relative="1" as="geometry" />
        </mxCell>
        <mxCell id="_JlLbovI6DGsuCHX4jDz-3" value="Drawing" style="rounded=1;whiteSpace=wrap;html=1;" parent="Fbse_wCR-hVCXEEPw7fp-1" vertex="1">
          <mxGeometry x="160" y="160" width="120" height="60" as="geometry" />
        </mxCell>
        <mxCell id="_JlLbovI6DGsuCHX4jDz-4" value="Export" style="rounded=1;whiteSpace=wrap;html=1;" parent="Fbse_wCR-hVCXEEPw7fp-1" vertex="1">
          <mxGeometry x="294" y="160" width="120" height="60" as="geometry" />
        </mxCell>
        <mxCell id="_JlLbovI6DGsuCHX4jDz-8" value="&lt;b&gt;C2O&lt;/b&gt;" style="rounded=1;whiteSpace=wrap;html=1;verticalAlign=top;strokeWidth=3;strokeColor=#020912;" parent="Fbse_wCR-hVCXEEPw7fp-1" vertex="1">
          <mxGeometry x="670" y="-100" width="130" height="120" as="geometry" />
        </mxCell>
        <mxCell id="_JlLbovI6DGsuCHX4jDz-9" value="&lt;b&gt;SAP&lt;/b&gt;" style="rounded=1;whiteSpace=wrap;html=1;verticalAlign=top;strokeWidth=3;strokeColor=#020912;" parent="Fbse_wCR-hVCXEEPw7fp-1" vertex="1">
          <mxGeometry x="670" y="280" width="130" height="120" as="geometry" />
        </mxCell>
        <mxCell id="_JlLbovI6DGsuCHX4jDz-14" value="" style="edgeStyle=orthogonalEdgeStyle;rounded=0;orthogonalLoop=1;jettySize=auto;html=1;entryX=0;entryY=0.5;entryDx=0;entryDy=0;exitX=1;exitY=0.25;exitDx=0;exitDy=0;" parent="Fbse_wCR-hVCXEEPw7fp-1" source="_JlLbovI6DGsuCHX4jDz-4" target="_JlLbovI6DGsuCHX4jDz-13" edge="1">
          <mxGeometry relative="1" as="geometry">
            <mxPoint x="620" y="190" as="sourcePoint" />
            <Array as="points">
              <mxPoint x="414" y="190" />
              <mxPoint x="600" y="190" />
              <mxPoint x="600" y="-40" />
            </Array>
          </mxGeometry>
        </mxCell>
        <mxCell id="_JlLbovI6DGsuCHX4jDz-13" value="Import" style="rounded=1;whiteSpace=wrap;html=1;" parent="Fbse_wCR-hVCXEEPw7fp-1" vertex="1">
          <mxGeometry x="700" y="-70" width="70" height="60" as="geometry" />
        </mxCell>
        <mxCell id="_JlLbovI6DGsuCHX4jDz-29" style="edgeStyle=orthogonalEdgeStyle;rounded=0;orthogonalLoop=1;jettySize=auto;html=1;exitX=0.5;exitY=0;exitDx=0;exitDy=0;entryX=0;entryY=0.5;entryDx=0;entryDy=0;" parent="Fbse_wCR-hVCXEEPw7fp-1" source="_JlLbovI6DGsuCHX4jDz-20" target="_JlLbovI6DGsuCHX4jDz-1" edge="1">
          <mxGeometry relative="1" as="geometry">
            <Array as="points">
              <mxPoint x="-10" y="130" />
            </Array>
          </mxGeometry>
        </mxCell>
        <mxCell id="_JlLbovI6DGsuCHX4jDz-30" style="edgeStyle=orthogonalEdgeStyle;rounded=0;orthogonalLoop=1;jettySize=auto;html=1;exitX=0.5;exitY=1;exitDx=0;exitDy=0;entryX=0;entryY=0.5;entryDx=0;entryDy=0;" parent="Fbse_wCR-hVCXEEPw7fp-1" source="_JlLbovI6DGsuCHX4jDz-20" target="_JlLbovI6DGsuCHX4jDz-2" edge="1">
          <mxGeometry relative="1" as="geometry" />
        </mxCell>
        <mxCell id="_JlLbovI6DGsuCHX4jDz-20" value="Dews or Darl" style="rhombus;whiteSpace=wrap;html=1;" parent="Fbse_wCR-hVCXEEPw7fp-1" vertex="1">
          <mxGeometry x="-50" y="140" width="80" height="80" as="geometry" />
        </mxCell>
        <mxCell id="_JlLbovI6DGsuCHX4jDz-35" style="edgeStyle=orthogonalEdgeStyle;rounded=0;orthogonalLoop=1;jettySize=auto;html=1;exitX=1;exitY=0.5;exitDx=0;exitDy=0;entryX=0;entryY=0.5;entryDx=0;entryDy=0;" parent="Fbse_wCR-hVCXEEPw7fp-1" source="_JlLbovI6DGsuCHX4jDz-34" target="_JlLbovI6DGsuCHX4jDz-20" edge="1">
          <mxGeometry relative="1" as="geometry" />
        </mxCell>
        <mxCell id="_JlLbovI6DGsuCHX4jDz-34" value="" style="ellipse;whiteSpace=wrap;html=1;aspect=fixed;" parent="Fbse_wCR-hVCXEEPw7fp-1" vertex="1">
          <mxGeometry x="-290" y="140" width="80" height="80" as="geometry" />
        </mxCell>
        <mxCell id="_JlLbovI6DGsuCHX4jDz-16" value="Import" style="rounded=1;whiteSpace=wrap;html=1;" parent="Fbse_wCR-hVCXEEPw7fp-1" vertex="1">
          <mxGeometry x="700" y="315" width="70" height="60" as="geometry" />
        </mxCell>
        <mxCell id="87D5IM8qtyfVkClEqCiQ-0" style="edgeStyle=orthogonalEdgeStyle;rounded=0;orthogonalLoop=1;jettySize=auto;html=1;exitX=1;exitY=0.75;exitDx=0;exitDy=0;entryX=0;entryY=0.5;entryDx=0;entryDy=0;" edge="1" parent="Fbse_wCR-hVCXEEPw7fp-1" source="_JlLbovI6DGsuCHX4jDz-4" target="_JlLbovI6DGsuCHX4jDz-16">
          <mxGeometry relative="1" as="geometry">
            <Array as="points">
              <mxPoint x="414" y="190" />
              <mxPoint x="600" y="190" />
              <mxPoint x="600" y="345" />
            </Array>
          </mxGeometry>
        </mxCell>
      </root>
    </mxGraphModel>
  </diagram>
  <diagram name="Lead Capture - Multi Catalogue" id="xptw0SQupD6m_jO9cA7Y">
    <mxGraphModel dx="1609" dy="1606" grid="1" gridSize="10" guides="1" tooltips="1" connect="1" arrows="1" fold="1" page="1" pageScale="1" pageWidth="827" pageHeight="1169" math="0" shadow="0">
      <root>
        <mxCell id="bqPSz23PdT2e_r1nomSk-0" />
        <mxCell id="bqPSz23PdT2e_r1nomSk-1" parent="bqPSz23PdT2e_r1nomSk-0" />
        <mxCell id="hPaM4mjeML4o89JHEgDq-0" value="&lt;b&gt;Quoting&lt;/b&gt;" style="rounded=1;whiteSpace=wrap;html=1;verticalAlign=top;strokeWidth=1;strokeColor=#020912;dashed=1;" vertex="1" parent="bqPSz23PdT2e_r1nomSk-1">
          <mxGeometry x="500" y="-130" width="170" height="560" as="geometry" />
        </mxCell>
        <mxCell id="bqPSz23PdT2e_r1nomSk-26" value="&lt;b&gt;Lead Capture&lt;/b&gt;" style="rounded=1;whiteSpace=wrap;html=1;verticalAlign=top;strokeWidth=1;strokeColor=#020912;dashed=1;" vertex="1" parent="bqPSz23PdT2e_r1nomSk-1">
          <mxGeometry x="-390" y="40" width="260" height="275" as="geometry" />
        </mxCell>
        <mxCell id="bqPSz23PdT2e_r1nomSk-2" value="&lt;b&gt;Design&lt;/b&gt;" style="rounded=1;whiteSpace=wrap;html=1;verticalAlign=top;strokeWidth=1;strokeColor=#020912;dashed=1;" vertex="1" parent="bqPSz23PdT2e_r1nomSk-1">
          <mxGeometry x="-90" y="-60" width="550" height="375" as="geometry" />
        </mxCell>
        <mxCell id="bqPSz23PdT2e_r1nomSk-3" value="&lt;b&gt;2020 Fusion&lt;/b&gt;" style="rounded=1;whiteSpace=wrap;html=1;verticalAlign=top;strokeWidth=3;strokeColor=#020912;" vertex="1" parent="bqPSz23PdT2e_r1nomSk-1">
          <mxGeometry x="-60" y="65" width="500" height="230" as="geometry" />
        </mxCell>
        <mxCell id="bqPSz23PdT2e_r1nomSk-6" style="edgeStyle=orthogonalEdgeStyle;rounded=0;orthogonalLoop=1;jettySize=auto;html=1;exitX=1;exitY=0.5;exitDx=0;exitDy=0;entryX=0.5;entryY=0;entryDx=0;entryDy=0;" edge="1" parent="bqPSz23PdT2e_r1nomSk-1" source="bqPSz23PdT2e_r1nomSk-7" target="bqPSz23PdT2e_r1nomSk-11">
          <mxGeometry relative="1" as="geometry" />
        </mxCell>
        <mxCell id="bqPSz23PdT2e_r1nomSk-7" value="Dewsbury Catalogue" style="rounded=1;whiteSpace=wrap;html=1;" vertex="1" parent="bqPSz23PdT2e_r1nomSk-1">
          <mxGeometry x="30" y="100" width="120" height="60" as="geometry" />
        </mxCell>
        <mxCell id="bqPSz23PdT2e_r1nomSk-8" style="edgeStyle=orthogonalEdgeStyle;rounded=0;orthogonalLoop=1;jettySize=auto;html=1;exitX=1;exitY=0.5;exitDx=0;exitDy=0;entryX=0.5;entryY=1;entryDx=0;entryDy=0;" edge="1" parent="bqPSz23PdT2e_r1nomSk-1" source="bqPSz23PdT2e_r1nomSk-9" target="bqPSz23PdT2e_r1nomSk-11">
          <mxGeometry relative="1" as="geometry" />
        </mxCell>
        <mxCell id="bqPSz23PdT2e_r1nomSk-9" value="Darlington Catalogue" style="rounded=1;whiteSpace=wrap;html=1;" vertex="1" parent="bqPSz23PdT2e_r1nomSk-1">
          <mxGeometry x="30" y="221" width="120" height="60" as="geometry" />
        </mxCell>
        <mxCell id="bqPSz23PdT2e_r1nomSk-10" style="edgeStyle=orthogonalEdgeStyle;rounded=0;orthogonalLoop=1;jettySize=auto;html=1;exitX=1;exitY=0.5;exitDx=0;exitDy=0;entryX=0;entryY=0.5;entryDx=0;entryDy=0;" edge="1" parent="bqPSz23PdT2e_r1nomSk-1" source="bqPSz23PdT2e_r1nomSk-11" target="bqPSz23PdT2e_r1nomSk-13">
          <mxGeometry relative="1" as="geometry" />
        </mxCell>
        <mxCell id="bqPSz23PdT2e_r1nomSk-11" value="Drawing" style="rounded=1;whiteSpace=wrap;html=1;" vertex="1" parent="bqPSz23PdT2e_r1nomSk-1">
          <mxGeometry x="160" y="160" width="120" height="60" as="geometry" />
        </mxCell>
        <mxCell id="bqPSz23PdT2e_r1nomSk-13" value="Export" style="rounded=1;whiteSpace=wrap;html=1;" vertex="1" parent="bqPSz23PdT2e_r1nomSk-1">
          <mxGeometry x="294" y="160" width="120" height="60" as="geometry" />
        </mxCell>
        <mxCell id="bqPSz23PdT2e_r1nomSk-14" value="&lt;b&gt;C2O&lt;/b&gt;" style="rounded=1;whiteSpace=wrap;html=1;verticalAlign=top;strokeWidth=3;strokeColor=#020912;" vertex="1" parent="bqPSz23PdT2e_r1nomSk-1">
          <mxGeometry x="520" y="-100" width="130" height="120" as="geometry" />
        </mxCell>
        <mxCell id="bqPSz23PdT2e_r1nomSk-15" value="&lt;b&gt;SAP&lt;/b&gt;" style="rounded=1;whiteSpace=wrap;html=1;verticalAlign=top;strokeWidth=3;strokeColor=#020912;" vertex="1" parent="bqPSz23PdT2e_r1nomSk-1">
          <mxGeometry x="520" y="280" width="130" height="120" as="geometry" />
        </mxCell>
        <mxCell id="bqPSz23PdT2e_r1nomSk-16" value="" style="edgeStyle=orthogonalEdgeStyle;rounded=0;orthogonalLoop=1;jettySize=auto;html=1;entryX=0;entryY=0.5;entryDx=0;entryDy=0;exitX=1;exitY=0.5;exitDx=0;exitDy=0;" edge="1" parent="bqPSz23PdT2e_r1nomSk-1" source="bqPSz23PdT2e_r1nomSk-13" target="bqPSz23PdT2e_r1nomSk-18">
          <mxGeometry relative="1" as="geometry">
            <mxPoint x="620" y="190" as="sourcePoint" />
            <Array as="points">
              <mxPoint x="480" y="190" />
              <mxPoint x="480" y="-40" />
            </Array>
          </mxGeometry>
        </mxCell>
        <mxCell id="bqPSz23PdT2e_r1nomSk-18" value="Import" style="rounded=1;whiteSpace=wrap;html=1;" vertex="1" parent="bqPSz23PdT2e_r1nomSk-1">
          <mxGeometry x="550" y="-70" width="70" height="60" as="geometry" />
        </mxCell>
        <mxCell id="bqPSz23PdT2e_r1nomSk-19" style="edgeStyle=orthogonalEdgeStyle;rounded=0;orthogonalLoop=1;jettySize=auto;html=1;exitX=1;exitY=0.5;exitDx=0;exitDy=0;entryX=0;entryY=0.5;entryDx=0;entryDy=0;" edge="1" parent="bqPSz23PdT2e_r1nomSk-1" source="bqPSz23PdT2e_r1nomSk-13" target="bqPSz23PdT2e_r1nomSk-20">
          <mxGeometry relative="1" as="geometry">
            <mxPoint x="620" y="205" as="sourcePoint" />
            <Array as="points">
              <mxPoint x="480" y="190" />
              <mxPoint x="480" y="345" />
            </Array>
          </mxGeometry>
        </mxCell>
        <mxCell id="bqPSz23PdT2e_r1nomSk-20" value="Import" style="rounded=1;whiteSpace=wrap;html=1;" vertex="1" parent="bqPSz23PdT2e_r1nomSk-1">
          <mxGeometry x="550" y="315" width="70" height="60" as="geometry" />
        </mxCell>
        <mxCell id="bqPSz23PdT2e_r1nomSk-22" style="edgeStyle=orthogonalEdgeStyle;rounded=0;orthogonalLoop=1;jettySize=auto;html=1;exitX=0.5;exitY=1;exitDx=0;exitDy=0;entryX=0;entryY=0.5;entryDx=0;entryDy=0;" edge="1" parent="bqPSz23PdT2e_r1nomSk-1" source="bqPSz23PdT2e_r1nomSk-23" target="bqPSz23PdT2e_r1nomSk-9">
          <mxGeometry relative="1" as="geometry" />
        </mxCell>
        <mxCell id="ihpv6U2OJuhMmXyOgyCs-0" style="edgeStyle=orthogonalEdgeStyle;rounded=0;orthogonalLoop=1;jettySize=auto;html=1;exitX=0.5;exitY=0;exitDx=0;exitDy=0;entryX=0;entryY=0.5;entryDx=0;entryDy=0;" edge="1" parent="bqPSz23PdT2e_r1nomSk-1" source="bqPSz23PdT2e_r1nomSk-23" target="bqPSz23PdT2e_r1nomSk-7">
          <mxGeometry relative="1" as="geometry" />
        </mxCell>
        <mxCell id="bqPSz23PdT2e_r1nomSk-23" value="Dews or Darl" style="rhombus;whiteSpace=wrap;html=1;" vertex="1" parent="bqPSz23PdT2e_r1nomSk-1">
          <mxGeometry x="-310" y="150" width="80" height="80" as="geometry" />
        </mxCell>
        <mxCell id="bqPSz23PdT2e_r1nomSk-24" style="edgeStyle=orthogonalEdgeStyle;rounded=0;orthogonalLoop=1;jettySize=auto;html=1;exitX=1;exitY=0.5;exitDx=0;exitDy=0;entryX=0;entryY=0.5;entryDx=0;entryDy=0;" edge="1" parent="bqPSz23PdT2e_r1nomSk-1" source="bqPSz23PdT2e_r1nomSk-25" target="bqPSz23PdT2e_r1nomSk-23">
          <mxGeometry relative="1" as="geometry" />
        </mxCell>
        <mxCell id="bqPSz23PdT2e_r1nomSk-25" value="" style="ellipse;whiteSpace=wrap;html=1;aspect=fixed;" vertex="1" parent="bqPSz23PdT2e_r1nomSk-1">
          <mxGeometry x="-500" y="150" width="80" height="80" as="geometry" />
        </mxCell>
      </root>
    </mxGraphModel>
  </diagram>
  <diagram name="End of Design-  Multi Catalogue" id="evm0ahgz21U04MNeQETG">
    <mxGraphModel dx="1609" dy="1606" grid="1" gridSize="10" guides="1" tooltips="1" connect="1" arrows="1" fold="1" page="1" pageScale="1" pageWidth="827" pageHeight="1169" math="0" shadow="0">
      <root>
        <mxCell id="7GcjfIIWh7iEYWclRc8i-0" />
        <mxCell id="7GcjfIIWh7iEYWclRc8i-1" parent="7GcjfIIWh7iEYWclRc8i-0" />
        <mxCell id="7GcjfIIWh7iEYWclRc8i-3" value="&lt;b&gt;Design&lt;/b&gt;" style="rounded=1;whiteSpace=wrap;html=1;verticalAlign=top;strokeWidth=3;strokeColor=#1661BE;" vertex="1" parent="7GcjfIIWh7iEYWclRc8i-1">
          <mxGeometry x="-90" y="-90" width="640" height="405" as="geometry" />
        </mxCell>
        <mxCell id="7GcjfIIWh7iEYWclRc8i-4" value="&lt;b&gt;2020 Fusion&lt;/b&gt;" style="rounded=1;whiteSpace=wrap;html=1;verticalAlign=top;strokeWidth=3;strokeColor=#1661BE;" vertex="1" parent="7GcjfIIWh7iEYWclRc8i-1">
          <mxGeometry x="-60" y="65" width="590" height="230" as="geometry" />
        </mxCell>
        <mxCell id="7GcjfIIWh7iEYWclRc8i-7" style="edgeStyle=orthogonalEdgeStyle;rounded=0;orthogonalLoop=1;jettySize=auto;html=1;exitX=1;exitY=0.5;exitDx=0;exitDy=0;entryX=0.5;entryY=0;entryDx=0;entryDy=0;" edge="1" parent="7GcjfIIWh7iEYWclRc8i-1" source="7GcjfIIWh7iEYWclRc8i-8" target="7GcjfIIWh7iEYWclRc8i-12">
          <mxGeometry relative="1" as="geometry" />
        </mxCell>
        <mxCell id="7GcjfIIWh7iEYWclRc8i-8" value="Dewsbury Catalogue" style="rounded=1;whiteSpace=wrap;html=1;" vertex="1" parent="7GcjfIIWh7iEYWclRc8i-1">
          <mxGeometry x="30" y="100" width="120" height="60" as="geometry" />
        </mxCell>
        <mxCell id="7GcjfIIWh7iEYWclRc8i-9" style="edgeStyle=orthogonalEdgeStyle;rounded=0;orthogonalLoop=1;jettySize=auto;html=1;exitX=1;exitY=0.5;exitDx=0;exitDy=0;entryX=0.5;entryY=1;entryDx=0;entryDy=0;" edge="1" parent="7GcjfIIWh7iEYWclRc8i-1" source="7GcjfIIWh7iEYWclRc8i-10" target="7GcjfIIWh7iEYWclRc8i-12">
          <mxGeometry relative="1" as="geometry" />
        </mxCell>
        <mxCell id="7GcjfIIWh7iEYWclRc8i-10" value="Darlington Catalogue" style="rounded=1;whiteSpace=wrap;html=1;" vertex="1" parent="7GcjfIIWh7iEYWclRc8i-1">
          <mxGeometry x="30" y="210" width="120" height="60" as="geometry" />
        </mxCell>
        <mxCell id="7GcjfIIWh7iEYWclRc8i-11" style="edgeStyle=orthogonalEdgeStyle;rounded=0;orthogonalLoop=1;jettySize=auto;html=1;exitX=1;exitY=0.5;exitDx=0;exitDy=0;entryX=0;entryY=0.5;entryDx=0;entryDy=0;" edge="1" parent="7GcjfIIWh7iEYWclRc8i-1" source="7GcjfIIWh7iEYWclRc8i-12" target="7GcjfIIWh7iEYWclRc8i-14">
          <mxGeometry relative="1" as="geometry" />
        </mxCell>
        <mxCell id="7GcjfIIWh7iEYWclRc8i-12" value="Drawing" style="rounded=1;whiteSpace=wrap;html=1;" vertex="1" parent="7GcjfIIWh7iEYWclRc8i-1">
          <mxGeometry x="160" y="160" width="120" height="60" as="geometry" />
        </mxCell>
        <mxCell id="Pb_BCG3rpowcddXdC12i-1" style="edgeStyle=orthogonalEdgeStyle;rounded=0;orthogonalLoop=1;jettySize=auto;html=1;exitX=1;exitY=0.5;exitDx=0;exitDy=0;entryX=0;entryY=0.5;entryDx=0;entryDy=0;" edge="1" parent="7GcjfIIWh7iEYWclRc8i-1" source="7GcjfIIWh7iEYWclRc8i-14" target="Pb_BCG3rpowcddXdC12i-0">
          <mxGeometry relative="1" as="geometry" />
        </mxCell>
        <mxCell id="7GcjfIIWh7iEYWclRc8i-14" value="Export" style="rounded=1;whiteSpace=wrap;html=1;" vertex="1" parent="7GcjfIIWh7iEYWclRc8i-1">
          <mxGeometry x="294" y="160" width="120" height="60" as="geometry" />
        </mxCell>
        <mxCell id="7GcjfIIWh7iEYWclRc8i-15" value="&lt;b&gt;C2O&lt;/b&gt;" style="rounded=1;whiteSpace=wrap;html=1;verticalAlign=top;strokeWidth=3;strokeColor=#1661BE;" vertex="1" parent="7GcjfIIWh7iEYWclRc8i-1">
          <mxGeometry x="810" y="-100" width="130" height="120" as="geometry" />
        </mxCell>
        <mxCell id="7GcjfIIWh7iEYWclRc8i-16" value="&lt;b&gt;SAP&lt;/b&gt;" style="rounded=1;whiteSpace=wrap;html=1;verticalAlign=top;strokeWidth=3;strokeColor=#1661BE;" vertex="1" parent="7GcjfIIWh7iEYWclRc8i-1">
          <mxGeometry x="817" y="280" width="130" height="120" as="geometry" />
        </mxCell>
        <mxCell id="7GcjfIIWh7iEYWclRc8i-19" value="Import" style="rounded=1;whiteSpace=wrap;html=1;" vertex="1" parent="7GcjfIIWh7iEYWclRc8i-1">
          <mxGeometry x="840" y="-70" width="70" height="60" as="geometry" />
        </mxCell>
        <mxCell id="7GcjfIIWh7iEYWclRc8i-20" style="edgeStyle=orthogonalEdgeStyle;rounded=0;orthogonalLoop=1;jettySize=auto;html=1;exitX=1;exitY=0.5;exitDx=0;exitDy=0;entryX=0;entryY=0.5;entryDx=0;entryDy=0;" edge="1" parent="7GcjfIIWh7iEYWclRc8i-1" source="Pb_BCG3rpowcddXdC12i-0" target="7GcjfIIWh7iEYWclRc8i-21">
          <mxGeometry relative="1" as="geometry">
            <mxPoint x="620" y="205" as="sourcePoint" />
            <Array as="points">
              <mxPoint x="680" y="190" />
              <mxPoint x="680" y="345" />
            </Array>
          </mxGeometry>
        </mxCell>
        <mxCell id="7GcjfIIWh7iEYWclRc8i-21" value="Import" style="rounded=1;whiteSpace=wrap;html=1;" vertex="1" parent="7GcjfIIWh7iEYWclRc8i-1">
          <mxGeometry x="847" y="315" width="70" height="60" as="geometry" />
        </mxCell>
        <mxCell id="7GcjfIIWh7iEYWclRc8i-23" style="edgeStyle=orthogonalEdgeStyle;rounded=0;orthogonalLoop=1;jettySize=auto;html=1;exitX=1;exitY=0.5;exitDx=0;exitDy=0;entryX=0;entryY=0.5;entryDx=0;entryDy=0;" edge="1" parent="7GcjfIIWh7iEYWclRc8i-1" source="7GcjfIIWh7iEYWclRc8i-26" target="7GcjfIIWh7iEYWclRc8i-10">
          <mxGeometry relative="1" as="geometry">
            <mxPoint x="-240" y="210" as="sourcePoint" />
          </mxGeometry>
        </mxCell>
        <mxCell id="7GcjfIIWh7iEYWclRc8i-25" style="edgeStyle=orthogonalEdgeStyle;rounded=0;orthogonalLoop=1;jettySize=auto;html=1;exitX=1;exitY=0.5;exitDx=0;exitDy=0;" edge="1" parent="7GcjfIIWh7iEYWclRc8i-1" source="7GcjfIIWh7iEYWclRc8i-26" target="7GcjfIIWh7iEYWclRc8i-8">
          <mxGeometry relative="1" as="geometry">
            <mxPoint x="-280" y="170" as="targetPoint" />
          </mxGeometry>
        </mxCell>
        <mxCell id="7GcjfIIWh7iEYWclRc8i-26" value="" style="ellipse;whiteSpace=wrap;html=1;aspect=fixed;" vertex="1" parent="7GcjfIIWh7iEYWclRc8i-1">
          <mxGeometry x="-210" y="130" width="80" height="80" as="geometry" />
        </mxCell>
        <mxCell id="Pb_BCG3rpowcddXdC12i-2" style="edgeStyle=orthogonalEdgeStyle;rounded=0;orthogonalLoop=1;jettySize=auto;html=1;exitX=1;exitY=0.5;exitDx=0;exitDy=0;entryX=0;entryY=0.5;entryDx=0;entryDy=0;" edge="1" parent="7GcjfIIWh7iEYWclRc8i-1" source="Pb_BCG3rpowcddXdC12i-0" target="7GcjfIIWh7iEYWclRc8i-19">
          <mxGeometry relative="1" as="geometry">
            <mxPoint x="710" y="190" as="targetPoint" />
          </mxGeometry>
        </mxCell>
        <mxCell id="Pb_BCG3rpowcddXdC12i-0" value="Dews or Darl" style="rhombus;whiteSpace=wrap;html=1;" vertex="1" parent="7GcjfIIWh7iEYWclRc8i-1">
          <mxGeometry x="440" y="150" width="80" height="80" as="geometry" />
        </mxCell>
      </root>
    </mxGraphModel>
  </diagram>
  <diagram name="Post Design-  Multi Catalogue" id="GnHIZqdPLONxBIgIT4Gj">
    <mxGraphModel dx="1849" dy="1606" grid="1" gridSize="10" guides="1" tooltips="1" connect="1" arrows="1" fold="1" page="1" pageScale="1" pageWidth="827" pageHeight="1169" math="0" shadow="0">
      <root>
        <mxCell id="x0li2plNRmpR8_GpqX2q-0" />
        <mxCell id="x0li2plNRmpR8_GpqX2q-1" parent="x0li2plNRmpR8_GpqX2q-0" />
        <mxCell id="ucxce9_MLwUqWdL2mYv8-0" value="&lt;b&gt;&#39;Staging Area&#39;&lt;/b&gt;" style="rounded=1;whiteSpace=wrap;html=1;verticalAlign=top;strokeWidth=3;strokeColor=#1661BE;" vertex="1" parent="x0li2plNRmpR8_GpqX2q-1">
          <mxGeometry x="570" y="65" width="210" height="230" as="geometry" />
        </mxCell>
        <mxCell id="x0li2plNRmpR8_GpqX2q-2" value="&lt;b&gt;Design&lt;/b&gt;" style="rounded=1;whiteSpace=wrap;html=1;verticalAlign=top;strokeWidth=3;strokeColor=#1661BE;" vertex="1" parent="x0li2plNRmpR8_GpqX2q-1">
          <mxGeometry x="-90" y="-90" width="640" height="405" as="geometry" />
        </mxCell>
        <mxCell id="x0li2plNRmpR8_GpqX2q-3" value="&lt;b&gt;2020 Fusion&lt;/b&gt;" style="rounded=1;whiteSpace=wrap;html=1;verticalAlign=top;strokeWidth=3;strokeColor=#1661BE;" vertex="1" parent="x0li2plNRmpR8_GpqX2q-1">
          <mxGeometry x="-60" y="65" width="590" height="230" as="geometry" />
        </mxCell>
        <mxCell id="x0li2plNRmpR8_GpqX2q-4" style="edgeStyle=orthogonalEdgeStyle;rounded=0;orthogonalLoop=1;jettySize=auto;html=1;exitX=1;exitY=0.5;exitDx=0;exitDy=0;entryX=0.5;entryY=0;entryDx=0;entryDy=0;" edge="1" parent="x0li2plNRmpR8_GpqX2q-1" source="x0li2plNRmpR8_GpqX2q-5" target="x0li2plNRmpR8_GpqX2q-9">
          <mxGeometry relative="1" as="geometry" />
        </mxCell>
        <mxCell id="x0li2plNRmpR8_GpqX2q-5" value="Dewsbury Catalogue" style="rounded=1;whiteSpace=wrap;html=1;" vertex="1" parent="x0li2plNRmpR8_GpqX2q-1">
          <mxGeometry x="30" y="100" width="120" height="60" as="geometry" />
        </mxCell>
        <mxCell id="x0li2plNRmpR8_GpqX2q-6" style="edgeStyle=orthogonalEdgeStyle;rounded=0;orthogonalLoop=1;jettySize=auto;html=1;exitX=1;exitY=0.5;exitDx=0;exitDy=0;entryX=0.5;entryY=1;entryDx=0;entryDy=0;" edge="1" parent="x0li2plNRmpR8_GpqX2q-1" source="x0li2plNRmpR8_GpqX2q-7" target="x0li2plNRmpR8_GpqX2q-9">
          <mxGeometry relative="1" as="geometry" />
        </mxCell>
        <mxCell id="x0li2plNRmpR8_GpqX2q-7" value="Darlington Catalogue" style="rounded=1;whiteSpace=wrap;html=1;" vertex="1" parent="x0li2plNRmpR8_GpqX2q-1">
          <mxGeometry x="30" y="210" width="120" height="60" as="geometry" />
        </mxCell>
        <mxCell id="x0li2plNRmpR8_GpqX2q-8" style="edgeStyle=orthogonalEdgeStyle;rounded=0;orthogonalLoop=1;jettySize=auto;html=1;exitX=1;exitY=0.5;exitDx=0;exitDy=0;entryX=0;entryY=0.5;entryDx=0;entryDy=0;" edge="1" parent="x0li2plNRmpR8_GpqX2q-1" source="x0li2plNRmpR8_GpqX2q-9" target="x0li2plNRmpR8_GpqX2q-11">
          <mxGeometry relative="1" as="geometry" />
        </mxCell>
        <mxCell id="x0li2plNRmpR8_GpqX2q-9" value="Drawing" style="rounded=1;whiteSpace=wrap;html=1;" vertex="1" parent="x0li2plNRmpR8_GpqX2q-1">
          <mxGeometry x="160" y="160" width="120" height="60" as="geometry" />
        </mxCell>
        <mxCell id="x0li2plNRmpR8_GpqX2q-10" style="edgeStyle=orthogonalEdgeStyle;rounded=0;orthogonalLoop=1;jettySize=auto;html=1;exitX=1;exitY=0.5;exitDx=0;exitDy=0;entryX=0;entryY=0.5;entryDx=0;entryDy=0;" edge="1" parent="x0li2plNRmpR8_GpqX2q-1" source="x0li2plNRmpR8_GpqX2q-11" target="x0li2plNRmpR8_GpqX2q-21">
          <mxGeometry relative="1" as="geometry" />
        </mxCell>
        <mxCell id="x0li2plNRmpR8_GpqX2q-11" value="Export" style="rounded=1;whiteSpace=wrap;html=1;" vertex="1" parent="x0li2plNRmpR8_GpqX2q-1">
          <mxGeometry x="294" y="160" width="120" height="60" as="geometry" />
        </mxCell>
        <mxCell id="x0li2plNRmpR8_GpqX2q-12" value="&lt;b&gt;C2O&lt;/b&gt;" style="rounded=1;whiteSpace=wrap;html=1;verticalAlign=top;strokeWidth=3;strokeColor=#1661BE;" vertex="1" parent="x0li2plNRmpR8_GpqX2q-1">
          <mxGeometry x="840" y="20" width="130" height="120" as="geometry" />
        </mxCell>
        <mxCell id="x0li2plNRmpR8_GpqX2q-13" value="&lt;b&gt;SAP&lt;/b&gt;" style="rounded=1;whiteSpace=wrap;html=1;verticalAlign=top;strokeWidth=3;strokeColor=#1661BE;" vertex="1" parent="x0li2plNRmpR8_GpqX2q-1">
          <mxGeometry x="840" y="280" width="130" height="120" as="geometry" />
        </mxCell>
        <mxCell id="x0li2plNRmpR8_GpqX2q-14" value="Import" style="rounded=1;whiteSpace=wrap;html=1;" vertex="1" parent="x0li2plNRmpR8_GpqX2q-1">
          <mxGeometry x="870" y="50" width="70" height="60" as="geometry" />
        </mxCell>
        <mxCell id="x0li2plNRmpR8_GpqX2q-15" style="edgeStyle=orthogonalEdgeStyle;rounded=0;orthogonalLoop=1;jettySize=auto;html=1;exitX=1;exitY=0.5;exitDx=0;exitDy=0;entryX=0;entryY=0.5;entryDx=0;entryDy=0;" edge="1" parent="x0li2plNRmpR8_GpqX2q-1" source="x0li2plNRmpR8_GpqX2q-21" target="x0li2plNRmpR8_GpqX2q-16">
          <mxGeometry relative="1" as="geometry">
            <mxPoint x="620" y="205" as="sourcePoint" />
            <Array as="points">
              <mxPoint x="800" y="190" />
              <mxPoint x="800" y="345" />
            </Array>
          </mxGeometry>
        </mxCell>
        <mxCell id="x0li2plNRmpR8_GpqX2q-16" value="Import" style="rounded=1;whiteSpace=wrap;html=1;" vertex="1" parent="x0li2plNRmpR8_GpqX2q-1">
          <mxGeometry x="870" y="310" width="70" height="60" as="geometry" />
        </mxCell>
        <mxCell id="x0li2plNRmpR8_GpqX2q-17" style="edgeStyle=orthogonalEdgeStyle;rounded=0;orthogonalLoop=1;jettySize=auto;html=1;exitX=1;exitY=0.5;exitDx=0;exitDy=0;entryX=0;entryY=0.5;entryDx=0;entryDy=0;" edge="1" parent="x0li2plNRmpR8_GpqX2q-1" source="x0li2plNRmpR8_GpqX2q-19" target="x0li2plNRmpR8_GpqX2q-7">
          <mxGeometry relative="1" as="geometry">
            <mxPoint x="-240" y="210" as="sourcePoint" />
          </mxGeometry>
        </mxCell>
        <mxCell id="x0li2plNRmpR8_GpqX2q-18" style="edgeStyle=orthogonalEdgeStyle;rounded=0;orthogonalLoop=1;jettySize=auto;html=1;exitX=1;exitY=0.5;exitDx=0;exitDy=0;" edge="1" parent="x0li2plNRmpR8_GpqX2q-1" source="x0li2plNRmpR8_GpqX2q-19" target="x0li2plNRmpR8_GpqX2q-5">
          <mxGeometry relative="1" as="geometry">
            <mxPoint x="-280" y="170" as="targetPoint" />
          </mxGeometry>
        </mxCell>
        <mxCell id="x0li2plNRmpR8_GpqX2q-19" value="" style="ellipse;whiteSpace=wrap;html=1;aspect=fixed;" vertex="1" parent="x0li2plNRmpR8_GpqX2q-1">
          <mxGeometry x="-210" y="130" width="80" height="80" as="geometry" />
        </mxCell>
        <mxCell id="x0li2plNRmpR8_GpqX2q-20" style="edgeStyle=orthogonalEdgeStyle;rounded=0;orthogonalLoop=1;jettySize=auto;html=1;exitX=1;exitY=0.5;exitDx=0;exitDy=0;entryX=0;entryY=0.5;entryDx=0;entryDy=0;" edge="1" parent="x0li2plNRmpR8_GpqX2q-1" source="x0li2plNRmpR8_GpqX2q-21" target="x0li2plNRmpR8_GpqX2q-14">
          <mxGeometry relative="1" as="geometry">
            <mxPoint x="710" y="190" as="targetPoint" />
          </mxGeometry>
        </mxCell>
        <mxCell id="x0li2plNRmpR8_GpqX2q-21" value="Dews or Darl" style="rhombus;whiteSpace=wrap;html=1;" vertex="1" parent="x0li2plNRmpR8_GpqX2q-1">
          <mxGeometry x="650" y="150" width="80" height="80" as="geometry" />
        </mxCell>
      </root>
    </mxGraphModel>
  </diagram>
</mxfile>
